<?xml version="1.0" encoding="utf-8"?>
<!-- Generator: Adobe Illustrator 25.0.1, SVG Export Plug-In . SVG Version: 6.00 Build 0)  -->
<svg version="1.1" id="Calque_1" xmlns="http://www.w3.org/2000/svg" xmlns:xlink="http://www.w3.org/1999/xlink" x="0px" y="0px"
	 viewBox="0 0 137.1 154.7" style="enable-background:new 0 0 137.1 154.7;" xml:space="preserve">
<style type="text/css">
	.st0{fill:none;stroke:#E6007E;stroke-width:1.0712;stroke-miterlimit:10;}
	
		.st1{opacity:0.39;clip-path:url(#SVGID_2_);fill:none;stroke:#95C11F;stroke-width:1.8806;stroke-linecap:round;stroke-miterlimit:10;}
	.st2{clip-path:url(#SVGID_2_);fill:#95C11F;}
	
		.st3{opacity:0.39;clip-path:url(#SVGID_2_);fill:none;stroke:#1F8CA5;stroke-width:1.8806;stroke-linecap:round;stroke-miterlimit:10;}
	.st4{clip-path:url(#SVGID_2_);fill:#1F8CA5;}
	
		.st5{opacity:0.39;clip-path:url(#SVGID_2_);fill:#95C11F;stroke:#95C11F;stroke-width:1.8806;stroke-linecap:round;stroke-miterlimit:10;}
	
		.st6{opacity:0.54;clip-path:url(#SVGID_2_);fill:none;stroke:#95C11F;stroke-width:1.8806;stroke-linecap:round;stroke-miterlimit:10;}
	.st7{clip-path:url(#SVGID_2_);}
	.st8{opacity:0.39;fill:#1F8CA5;stroke:#1F8CA5;stroke-width:1.8806;stroke-linecap:round;stroke-miterlimit:10;}
	.st9{fill:#1F8CA5;}
	.st10{opacity:0.54;fill:none;stroke:#95C11F;stroke-width:1.8806;stroke-linecap:round;stroke-miterlimit:10;}
	.st11{fill:#95C11F;}
	.st12{opacity:0.39;fill:none;stroke:#1F8CA5;stroke-width:1.8806;stroke-linecap:round;stroke-miterlimit:10;}
	.st13{opacity:0.39;fill:#95C11F;stroke:#95C11F;stroke-width:1.8806;stroke-linecap:round;stroke-miterlimit:10;}
</style>
<path class="st0" d="M1524.8-512.2c0.3,18.6-5.3,32.7,5.6,44.4c10.9,11.7,30.1,12.6,41.5,1.7c10.9-10.5,11.7-29.3,1.6-39.4
	c-8.8-8.8-21.9-7-23.7-6.8"/>
<g>
	<defs>
		<path id="SVGID_1_" d="M5,108.1c0,3.5,1.9,6.7,4.9,8.4l51.8,29.9c3,1.7,6.7,1.7,9.7,0l51.8-29.9c3-1.7,4.9-4.9,4.9-8.4V48.3
			c0-3.5-1.9-6.7-4.9-8.4L71.4,10c-3-1.7-6.7-1.7-9.7,0L9.9,39.7c-3,1.7-4.9,4.9-4.9,8.4V108.1z"/>
	</defs>
	<use xlink:href="#SVGID_1_"  style="overflow:visible;fill:#FFFFFF;"/>
	<clipPath id="SVGID_2_">
		<use xlink:href="#SVGID_1_"  style="overflow:visible;"/>
	</clipPath>
	<line class="st1" x1="26.4" y1="112.1" x2="18.9" y2="125.5"/>
	<circle class="st2" cx="26.4" cy="112.1" r="1.3"/>
	<line class="st3" x1="20.3" y1="108.3" x2="7.3" y2="131.6"/>
	<circle class="st4" cx="20.3" cy="108.4" r="1.3"/>
	<line class="st5" x1="65.3" y1="134.1" x2="51.5" y2="158.6"/>
	<circle class="st2" cx="65.2" cy="134.2" r="1.3"/>
	<line class="st6" x1="52.3" y1="133.3" x2="38.5" y2="157.8"/>
	<circle class="st2" cx="52.4" cy="133.1" r="1.3"/>
	<g class="st7">
		<line class="st8" x1="49.7" y1="107.5" x2="36" y2="132"/>
		<circle class="st9" cx="49.6" cy="107.5" r="1.3"/>
		<line class="st10" x1="42" y1="114.1" x2="28.2" y2="138.6"/>
		<circle class="st11" cx="42.1" cy="113.9" r="1.3"/>
		<line class="st12" x1="34" y1="121.5" x2="20.2" y2="146"/>
		<circle class="st9" cx="34.2" cy="121.1" r="1.3"/>
		<line class="st13" x1="42.3" y1="130.9" x2="34.8" y2="144.3"/>
		<circle class="st11" cx="42.3" cy="130.9" r="1.3"/>
		<line class="st8" x1="53.2" y1="121.4" x2="39.4" y2="145.9"/>
		<circle class="st9" cx="53.4" cy="121" r="1.3"/>
	</g>
	<line class="st1" x1="30.1" y1="98.2" x2="16.3" y2="122.7"/>
	<circle class="st2" cx="30.1" cy="98.2" r="1.3"/>
	<line class="st1" x1="12.3" y1="109.5" x2="-1.5" y2="134"/>
	<circle class="st2" cx="12.2" cy="109.6" r="1.3"/>
	<g class="st7">
		<line class="st8" x1="109.3" y1="39.9" x2="123.1" y2="15.4"/>
		<circle class="st9" cx="109.4" cy="39.8" r="1.3"/>
		<line class="st10" x1="110" y1="59.3" x2="123.8" y2="34.8"/>
		<circle class="st11" cx="109.9" cy="59.5" r="1.3"/>
		<line class="st12" x1="116.8" y1="55.8" x2="130.5" y2="31.3"/>
		<circle class="st9" cx="116.6" cy="56.1" r="1.3"/>
		<line class="st13" x1="103.2" y1="39.8" x2="110.7" y2="26.5"/>
		<circle class="st11" cx="103.2" cy="39.8" r="1.3"/>
		<line class="st8" x1="95" y1="44" x2="108.8" y2="19.5"/>
		<circle class="st9" cx="94.8" cy="44.4" r="1.3"/>
		<line class="st8" x1="81.1" y1="23.5" x2="94.8" y2="-1"/>
		<circle class="st9" cx="80.9" cy="23.9" r="1.3"/>
		<line class="st8" x1="81.8" y1="31.4" x2="95.6" y2="6.9"/>
		<circle class="st9" cx="81.6" cy="31.8" r="1.3"/>
	</g>
	<use xlink:href="#SVGID_1_"  style="overflow:visible;fill:none;stroke:#C6C6C6;stroke-width:0.4627;stroke-miterlimit:10;"/>
</g>
<g>
	<g>
		<path class="st11" d="M23.7,78.2c-0.5,0-0.9-0.1-1.2-0.4c-0.3-0.2-0.5-0.5-0.5-0.9V53.3c0-0.3,0.2-0.6,0.5-0.9s0.7-0.4,1.2-0.4
			h6.2c1.5,0,2.8,0.3,4,0.8c1.2,0.5,2.1,1.4,2.8,2.5c0.7,1.2,1,2.7,1,4.6v10.2c0,1.9-0.3,3.5-1,4.6c-0.7,1.2-1.6,2-2.8,2.5
			c-1.2,0.5-2.5,0.8-4,0.8H23.7z M25.8,74.8h4.1c1.3,0,2.3-0.4,3-1.1c0.7-0.7,1.1-1.9,1.1-3.5V60c0-1.6-0.4-2.7-1.1-3.5
			c-0.7-0.7-1.7-1.1-3-1.1h-4.1V74.8z"/>
		<path class="st11" d="M42.5,78.2c-0.3,0-0.7-0.1-1-0.2c-0.4-0.1-0.7-0.3-0.9-0.6c-0.2-0.2-0.3-0.5-0.3-0.8c0-0.1,0-0.2,0-0.3
			l6.9-23.1c0.1-0.4,0.4-0.8,0.9-1c0.5-0.2,0.9-0.3,1.4-0.3c0.5,0,1,0.1,1.5,0.3c0.5,0.2,0.7,0.5,0.9,1l6.9,23.1
			c0,0.1,0.1,0.3,0.1,0.3c0,0.3-0.1,0.5-0.4,0.8c-0.2,0.2-0.5,0.4-0.9,0.6c-0.4,0.1-0.7,0.2-1.1,0.2c-0.3,0-0.6-0.1-0.8-0.2
			c-0.2-0.1-0.4-0.3-0.5-0.6l-1.4-5.1h-8.6l-1.4,5.1c-0.1,0.3-0.2,0.5-0.5,0.6C43.1,78.1,42.8,78.2,42.5,78.2z M46,69.3h7L49.5,57
			L46,69.3z"/>
		<path class="st11" d="M68.1,78.2c-0.5,0-0.9-0.1-1.3-0.3s-0.6-0.5-0.6-0.9V55.5h-5.4c-0.4,0-0.7-0.2-0.9-0.5s-0.3-0.8-0.3-1.2
			c0-0.4,0.1-0.8,0.3-1.2s0.5-0.5,0.9-0.5h14.4c0.4,0,0.8,0.2,0.9,0.5s0.3,0.7,0.3,1.1c0,0.5-0.1,0.9-0.3,1.2s-0.5,0.5-0.9,0.5h-5.4
			v21.4c0,0.4-0.2,0.7-0.6,0.9S68.5,78.2,68.1,78.2z"/>
		<path class="st11" d="M79.6,78.2c-0.3,0-0.7-0.1-1-0.2c-0.4-0.1-0.7-0.3-0.9-0.6c-0.2-0.2-0.3-0.5-0.3-0.8c0-0.1,0-0.2,0-0.3
			l6.9-23.1c0.1-0.4,0.4-0.8,0.9-1c0.5-0.2,0.9-0.3,1.4-0.3c0.5,0,1,0.1,1.5,0.3c0.5,0.2,0.7,0.5,0.9,1l6.9,23.1
			c0,0.1,0.1,0.3,0.1,0.3c0,0.3-0.1,0.5-0.4,0.8c-0.2,0.2-0.5,0.4-0.9,0.6c-0.4,0.1-0.7,0.2-1.1,0.2c-0.3,0-0.6-0.1-0.8-0.2
			c-0.2-0.1-0.4-0.3-0.5-0.6l-1.4-5.1h-8.6l-1.4,5.1c-0.1,0.3-0.2,0.5-0.5,0.6C80.2,78.1,79.9,78.2,79.6,78.2z M83.2,69.3h7L86.6,57
			L83.2,69.3z"/>
	</g>
</g>
<g>
	<path class="st9" d="M57.8,90.1c0-4.9,3.9-8.9,8.7-8.9c4.8,0,8.7,4,8.7,8.9S71.3,99,66.5,99C61.7,99,57.8,95,57.8,90.1z M69.8,95
		v-2.4h-3.4l0-7.4h-2.6V95H69.8z"/>
	<path class="st9" d="M76.7,90.1c0-4.9,3.9-8.9,8.7-8.9c4.8,0,8.7,4,8.7,8.9S90.2,99,85.4,99C80.6,99,76.7,95,76.7,90.1z M83,93.4
		h4.8l1,1.8l2.4-1l-5.8-9.4l-5.8,9.4l2.4,1L83,93.4z M85.4,89.2l1.3,2.1h-2.6L85.4,89.2z"/>
	<path class="st9" d="M95.6,90.1c0-4.9,3.9-8.9,8.7-8.9c4.8,0,8.7,4,8.7,8.9s-3.9,8.9-8.7,8.9C99.5,99,95.6,95,95.6,90.1z
		 M104.9,95.1c2.2,0,3.3-0.9,3.3-2.8c0-1.2-0.7-1.9-1.3-2.1c0.6-0.3,1.1-0.9,1.1-2.1c0-1.8-1.2-2.8-3.3-2.8h-3.5v9.8H104.9z
		 M103.7,87.5h0.9c0.6,0,0.9,0.2,0.9,0.8c0,0.6-0.3,0.8-0.9,0.8h-0.9V87.5z M103.7,91.2h1.1c0.6,0,0.9,0.3,0.9,0.8
		c0,0.5-0.3,0.8-0.9,0.8h-1.1V91.2z"/>
</g>
</svg>
